# xmcd
#
# Track frame offsets: 
#        150
#        16997
#        49174
#
# Disc length: 944 seconds
#
# Revision: 0
# Processed by: cddbd v1.4PL0 Copyright (c) Steve Scherf et al.
# Submitted via: ExactAudioCopy v0.90b4
#
DISCID=1c03ae03
DTITLE=Dolly Parton - Peace Train (Part 2 of a 2 CD Set)
DYEAR=1998
DGENRE=House
TTITLE0=Peace Train [Sparky's Piano Mix Radio Edit]
TTITLE1=Peace Train [Sparky's Piano Club Mix]
TTITLE2=Peace Train [Junior Vasquez Edit]
EXTD=
EXTT0=
EXTT1=
EXTT2=
PLAYORDER=
